<?xml version="1.0" standalone="no"?><!DOCTYPE svg PUBLIC "-//W3C//DTD SVG 1.1//EN" "http://www.w3.org/Graphics/SVG/1.1/DTD/svg11.dtd"><svg  class="icon" viewBox="0 0 1024 1024" version="1.1" xmlns="http://www.w3.org/2000/svg" xmlns:xlink="http://www.w3.org/1999/xlink" width="200" height="200"><defs><style type="text/css"></style></defs><path d="M955.008 133.856a64 64 0 0 0-56.736-56.704L551.456 39.584a64.096 64.096 0 0 0-52.16 18.368L64.288 492.992a64 64 0 0 0 0 90.496L448.96 968.16a64 64 0 0 0 90.496 0l435.008-435.008a64 64 0 0 0 18.368-52.192l-37.824-347.104z m-460.8 789.056L109.536 538.24l435.008-435.008 346.848 37.536 37.824 347.136-435.008 435.008zM709.856 200.48a112 112 0 1 0 0 224 112 112 0 0 0 0-224z m0 160a48 48 0 1 1 0.032-96.032 48 48 0 0 1-0.032 96.032z" ></path></svg>